# xmcd
#
# Track frame offsets:
#	150
#	8512
#	19349
#	26650
#	38341
#	49294
#	64233
#	75745
#	89118
#	101537
#	113746
#	125082
#	143132
#	157949
#	168626
#	182513
#	193551
#	203242
#	212918
#	225254
#	239083
#	249217
#	263976
#	278002
#
# Disc length: 3951 seconds
#
# Revision: 0
# Processed by: cddbd v1.5.2PL0 Copyright (c) Steve Scherf et al.
# Submitted via: EasyCDDAExtractor 12.0.7.1
#
DISCID=490f6d18
DTITLE=Spotnicks - Back In The Race and Something Like Country
DYEAR=1900
DGENRE=Folk-Rock
TTITLE0=Wildwood Flower
TTITLE1=Back In The Race
TTITLE2=Pussy Wiggle Stomp
TTITLE3=Everybody's Talking
TTITLE4=Lodi
TTITLE5=Gone, Gone, Gone
TTITLE6=Te Dans Me Karlstadtösera
TTITLE7=Putti Putti
TTITLE8=Diamonds
TTITLE9=Muddy Mississippi Line
TTITLE10=Soulful Strut
TTITLE11=For What It's Worth
TTITLE12=If You Could Read My Mind
TTITLE13=Jolie Blonde
TTITLE14=The Ipcress File
TTITLE15=Don't Think Twice It's Allright
TTITLE16=You Ain't Going Nowhere
TTITLE17=Mexican Whistler
TTITLE18=Norwegian Wood
TTITLE19=Livin' In The Country
TTITLE20=The Real Mc Coy
TTITLE21=Last Date
TTITLE22=Tennessee Stud
TTITLE23=Tokins
EXTD=
EXTT0=
EXTT1=
EXTT2=
EXTT3=
EXTT4=
EXTT5=
EXTT6=
EXTT7=
EXTT8=
EXTT9=
EXTT10=
EXTT11=
EXTT12=
EXTT13=
EXTT14=
EXTT15=
EXTT16=
EXTT17=
EXTT18=
EXTT19=
EXTT20=
EXTT21=
EXTT22=
EXTT23=
PLAYORDER=
